<svg width="129.696" height="22.656" viewBox="0 0 129.696 22.656" xmlns="http://www.w3.org/2000/svg">
    <g id="svgGroup" stroke-linecap="round" fill-rule="evenodd" font-size="9pt" stroke="#000" stroke-width="0.25mm" fill="white" style="stroke:#000;stroke-width:0mm;fill:white">
        <path d="M 55.728 17.088 L 53.568 17.088 L 53.568 4.608 L 55.656 4.608 L 55.656 6.696 Q 56.328 5.688 57.36 5.004 A 4.129 4.129 0 0 1 59.568 4.322 A 5.006 5.006 0 0 1 59.712 4.32 A 5.038 5.038 0 0 1 60.772 4.426 Q 61.563 4.596 62.148 5.04 A 3.78 3.78 0 0 1 63.455 6.886 A 4.597 4.597 0 0 1 63.48 6.96 Q 64.224 5.856 65.244 5.088 A 3.76 3.76 0 0 1 66.874 4.396 A 5.147 5.147 0 0 1 67.776 4.32 Q 69.816 4.32 70.812 5.604 A 4.558 4.558 0 0 1 71.631 7.349 Q 71.808 8.081 71.808 8.952 L 71.808 17.088 L 69.648 17.088 L 69.648 9.12 Q 69.648 8.029 69.223 7.287 A 2.636 2.636 0 0 0 69.048 7.02 A 1.914 1.914 0 0 0 67.653 6.229 A 2.563 2.563 0 0 0 67.392 6.216 A 2.862 2.862 0 0 0 65.77 6.727 A 3.839 3.839 0 0 0 65.388 7.02 Q 64.464 7.824 63.768 8.904 L 63.768 17.088 L 61.608 17.088 L 61.608 9.12 Q 61.608 8.029 61.183 7.287 A 2.636 2.636 0 0 0 61.008 7.02 A 1.914 1.914 0 0 0 59.613 6.229 A 2.563 2.563 0 0 0 59.352 6.216 A 2.885 2.885 0 0 0 57.835 6.655 A 3.899 3.899 0 0 0 57.36 6.996 Q 56.424 7.776 55.728 8.832 L 55.728 17.088 Z M 113.616 17.088 L 111.456 17.088 L 111.456 4.608 L 113.544 4.608 L 113.544 6.696 Q 114.216 5.688 115.248 5.004 A 4.129 4.129 0 0 1 117.456 4.322 A 5.006 5.006 0 0 1 117.6 4.32 A 5.038 5.038 0 0 1 118.66 4.426 Q 119.451 4.596 120.036 5.04 A 3.78 3.78 0 0 1 121.343 6.886 A 4.597 4.597 0 0 1 121.368 6.96 Q 122.112 5.856 123.132 5.088 A 3.76 3.76 0 0 1 124.762 4.396 A 5.147 5.147 0 0 1 125.664 4.32 Q 127.704 4.32 128.7 5.604 A 4.558 4.558 0 0 1 129.519 7.349 Q 129.696 8.081 129.696 8.952 L 129.696 17.088 L 127.536 17.088 L 127.536 9.12 Q 127.536 8.029 127.111 7.287 A 2.636 2.636 0 0 0 126.936 7.02 A 1.914 1.914 0 0 0 125.541 6.229 A 2.563 2.563 0 0 0 125.28 6.216 A 2.862 2.862 0 0 0 123.658 6.727 A 3.839 3.839 0 0 0 123.276 7.02 Q 122.352 7.824 121.656 8.904 L 121.656 17.088 L 119.496 17.088 L 119.496 9.12 Q 119.496 8.029 119.071 7.287 A 2.636 2.636 0 0 0 118.896 7.02 A 1.914 1.914 0 0 0 117.501 6.229 A 2.563 2.563 0 0 0 117.24 6.216 A 2.885 2.885 0 0 0 115.723 6.655 A 3.899 3.899 0 0 0 115.248 6.996 Q 114.312 7.776 113.616 8.832 L 113.616 17.088 Z M 94.776 1.368 L 93.936 3.264 Q 92.928 2.712 91.884 2.352 A 6.567 6.567 0 0 0 90.42 2.035 A 8.214 8.214 0 0 0 89.568 1.992 A 4.831 4.831 0 0 0 87.771 2.321 A 4.541 4.541 0 0 0 86.88 2.796 Q 85.704 3.6 85.02 5.16 Q 84.427 6.513 84.348 8.389 A 13.995 13.995 0 0 0 84.336 8.976 A 10.923 10.923 0 0 0 84.439 10.517 Q 84.557 11.341 84.808 12.039 A 6.249 6.249 0 0 0 84.96 12.42 A 5.803 5.803 0 0 0 85.664 13.631 A 4.585 4.585 0 0 0 86.688 14.616 A 4.303 4.303 0 0 0 89.042 15.381 A 5.278 5.278 0 0 0 89.232 15.384 A 5.463 5.463 0 0 0 90.575 15.225 A 4.52 4.52 0 0 0 91.62 14.82 A 9.687 9.687 0 0 0 92.341 14.392 Q 92.889 14.031 93.264 13.656 L 93.264 9.984 L 89.784 9.984 L 89.784 8.184 L 95.424 8.184 L 95.424 17.088 L 93.408 17.088 L 93.408 15.408 A 8.612 8.612 0 0 1 92.357 16.198 A 11.365 11.365 0 0 1 91.368 16.764 A 5.662 5.662 0 0 1 89.111 17.364 A 6.751 6.751 0 0 1 88.704 17.376 Q 86.76 17.376 85.248 16.368 Q 83.736 15.36 82.872 13.5 A 9.007 9.007 0 0 1 82.174 11.203 A 12.441 12.441 0 0 1 82.008 9.12 A 13.512 13.512 0 0 1 82.208 6.74 A 10.217 10.217 0 0 1 82.92 4.38 A 7.855 7.855 0 0 1 84.308 2.233 A 7.069 7.069 0 0 1 85.548 1.164 A 6.68 6.68 0 0 1 88.277 0.108 A 8.895 8.895 0 0 1 89.688 0 Q 91.248 0 92.472 0.384 Q 93.696 0.768 94.776 1.368 Z M 97.104 22.176 L 97.584 20.376 A 2.378 2.378 0 0 0 97.864 20.514 Q 98.061 20.597 98.304 20.664 A 3.243 3.243 0 0 0 98.851 20.764 A 4.166 4.166 0 0 0 99.264 20.784 Q 100.272 20.784 101.064 20.136 A 2.881 2.881 0 0 0 101.528 19.641 Q 102.07 18.925 102.576 17.592 L 103.128 16.152 L 101.976 16.152 L 97.104 5.184 L 99.024 4.32 L 103.68 14.712 L 107.304 4.416 L 109.296 5.184 L 104.712 17.712 A 17.215 17.215 0 0 1 104.219 18.933 Q 103.955 19.518 103.675 19.995 A 7.406 7.406 0 0 1 103.2 20.712 A 5.824 5.824 0 0 1 102.509 21.483 Q 101.984 21.968 101.4 22.224 Q 100.416 22.656 99.216 22.656 A 6.101 6.101 0 0 1 98.62 22.628 Q 98.26 22.593 97.956 22.512 A 4.878 4.878 0 0 1 97.612 22.407 Q 97.451 22.351 97.318 22.29 A 2.067 2.067 0 0 1 97.104 22.176 Z M 35.808 11.736 L 27.072 11.736 Q 27.273 13.368 28.162 14.334 A 3.595 3.595 0 0 0 28.296 14.472 A 3.395 3.395 0 0 0 30.126 15.387 A 4.805 4.805 0 0 0 30.96 15.456 Q 32.04 15.456 32.904 15.228 Q 33.768 15 34.56 14.64 L 35.064 16.488 Q 34.2 16.872 33.12 17.124 A 9.339 9.339 0 0 1 31.898 17.321 A 12.486 12.486 0 0 1 30.696 17.376 A 6.796 6.796 0 0 1 28.837 17.135 A 5.066 5.066 0 0 1 26.436 15.66 A 5.645 5.645 0 0 1 25.187 13.37 Q 24.945 12.531 24.884 11.532 A 11.31 11.31 0 0 1 24.864 10.848 A 8.486 8.486 0 0 1 25.064 8.971 A 6.922 6.922 0 0 1 25.572 7.5 Q 26.28 6.024 27.552 5.172 A 5.052 5.052 0 0 1 30.014 4.339 A 6.289 6.289 0 0 1 30.504 4.32 Q 32.304 4.32 33.492 5.1 Q 34.68 5.88 35.28 7.2 Q 35.88 8.52 35.88 10.104 A 18.049 18.049 0 0 1 35.81 11.711 A 16.643 16.643 0 0 1 35.808 11.736 Z M 0 17.04 L 0 0.336 Q 1.128 0.216 2.208 0.156 A 36.314 36.314 0 0 1 3.213 0.115 Q 3.726 0.101 4.295 0.097 A 61.586 61.586 0 0 1 4.68 0.096 Q 6.687 0.096 8.186 0.676 A 7.007 7.007 0 0 1 8.412 0.768 Q 9.984 1.44 11.004 2.616 Q 12.024 3.792 12.516 5.34 A 10.621 10.621 0 0 1 12.989 7.979 A 12.361 12.361 0 0 1 13.008 8.664 A 10.874 10.874 0 0 1 12.653 11.471 A 10.032 10.032 0 0 1 12.504 11.976 Q 12 13.536 10.956 14.724 A 6.952 6.952 0 0 1 8.975 16.272 A 8.462 8.462 0 0 1 8.292 16.596 Q 6.786 17.232 4.73 17.277 A 14.446 14.446 0 0 1 4.416 17.28 Q 3.369 17.28 2.525 17.238 A 24.36 24.36 0 0 1 2.028 17.208 Q 1.008 17.136 0 17.04 Z M 47.304 5.616 L 47.304 4.608 L 49.272 4.608 L 49.272 14.064 Q 49.272 14.818 49.575 15.137 A 0.712 0.712 0 0 0 49.716 15.252 Q 50.16 15.528 50.688 15.528 L 50.232 17.208 A 4.253 4.253 0 0 1 49.208 17.095 Q 47.856 16.759 47.473 15.427 A 3.261 3.261 0 0 1 47.448 15.336 Q 46.896 16.104 45.948 16.74 Q 45 17.376 43.536 17.376 Q 41.976 17.376 40.704 16.584 A 5.507 5.507 0 0 1 38.925 14.778 A 6.701 6.701 0 0 1 38.676 14.34 A 6.535 6.535 0 0 1 38.045 12.434 A 8.795 8.795 0 0 1 37.92 10.92 A 7.954 7.954 0 0 1 38.159 8.936 A 6.712 6.712 0 0 1 38.676 7.56 Q 39.432 6.072 40.764 5.196 A 5.351 5.351 0 0 1 43.451 4.331 A 6.573 6.573 0 0 1 43.824 4.32 A 5.42 5.42 0 0 1 44.974 4.438 A 4.489 4.489 0 0 1 45.78 4.692 A 6.24 6.24 0 0 1 46.809 5.243 A 5.305 5.305 0 0 1 47.304 5.616 Z M 18.288 17.088 L 16.128 17.088 L 16.128 4.608 L 18.216 4.608 L 18.216 7.32 Q 18.528 6.528 19.056 5.844 Q 19.584 5.16 20.376 4.74 Q 21.168 4.32 22.224 4.32 Q 22.584 4.32 22.944 4.356 A 4.553 4.553 0 0 1 23.197 4.388 Q 23.394 4.419 23.544 4.464 L 22.896 6.696 A 2.343 2.343 0 0 0 22.381 6.549 Q 22.143 6.508 21.872 6.504 A 3.982 3.982 0 0 0 21.816 6.504 Q 20.928 6.504 20.124 7.008 A 3.216 3.216 0 0 0 19.291 7.775 Q 19.026 8.117 18.811 8.554 A 5.431 5.431 0 0 0 18.804 8.568 Q 18.381 9.434 18.305 10.687 A 9.381 9.381 0 0 0 18.288 11.256 L 18.288 17.088 Z M 2.28 2.184 L 2.28 15.168 Q 2.784 15.24 3.336 15.264 Q 3.888 15.288 4.488 15.288 Q 6.648 15.288 8.016 14.448 Q 9.384 13.608 10.032 12.108 A 7.75 7.75 0 0 0 10.573 10.17 A 10.201 10.201 0 0 0 10.68 8.664 Q 10.68 6.936 10.032 5.424 Q 9.384 3.912 8.04 2.988 A 5.015 5.015 0 0 0 6.347 2.254 Q 5.554 2.064 4.608 2.064 Q 3.912 2.064 3.336 2.1 Q 2.76 2.136 2.28 2.184 Z M 47.112 13.896 L 47.112 7.2 Q 46.464 6.744 45.684 6.468 Q 44.904 6.192 44.04 6.192 A 3.822 3.822 0 0 0 42.847 6.373 A 3.366 3.366 0 0 0 42.012 6.78 A 3.912 3.912 0 0 0 40.807 8.082 A 4.791 4.791 0 0 0 40.632 8.412 A 4.959 4.959 0 0 0 40.211 9.774 A 6.643 6.643 0 0 0 40.128 10.848 Q 40.128 12.192 40.632 13.236 A 4.224 4.224 0 0 0 41.377 14.327 A 3.767 3.767 0 0 0 42.024 14.868 Q 42.912 15.456 44.016 15.456 Q 44.928 15.456 45.744 15.012 Q 46.56 14.568 47.112 13.896 Z M 27.048 9.984 L 33.888 9.984 A 5.845 5.845 0 0 0 33.791 8.884 Q 33.672 8.263 33.407 7.778 A 2.981 2.981 0 0 0 32.976 7.176 A 2.997 2.997 0 0 0 31.305 6.27 A 4.415 4.415 0 0 0 30.456 6.192 Q 29.064 6.192 28.152 7.164 Q 27.24 8.136 27.048 9.984 Z" vector-effect="non-scaling-stroke"/>
    </g>
</svg>