<svg width="36.03" height="21.72" viewBox="0 0 36.03 21.72" xmlns="http://www.w3.org/2000/svg">
    <g id="svgGroup" stroke-linecap="round" fill-rule="evenodd" font-size="9pt" stroke="#000" stroke-width="0.25mm" fill="white" style="stroke:#000;stroke-width:0mm;fill:white">
        <path d="M 35.22 1.71 L 34.17 4.08 Q 32.91 3.39 31.605 2.94 Q 30.3 2.49 28.71 2.49 A 6.039 6.039 0 0 0 26.464 2.901 A 5.676 5.676 0 0 0 25.35 3.495 A 6.089 6.089 0 0 0 23.753 5.12 A 8.237 8.237 0 0 0 23.025 6.45 Q 22.284 8.141 22.185 10.486 A 17.493 17.493 0 0 0 22.17 11.22 A 13.654 13.654 0 0 0 22.299 13.146 Q 22.446 14.177 22.761 15.049 A 7.811 7.811 0 0 0 22.95 15.525 A 7.254 7.254 0 0 0 23.83 17.039 A 5.731 5.731 0 0 0 25.11 18.27 Q 26.49 19.23 28.29 19.23 A 6.829 6.829 0 0 0 29.969 19.031 A 5.65 5.65 0 0 0 31.275 18.525 A 12.108 12.108 0 0 0 32.176 17.99 Q 32.861 17.539 33.33 17.07 L 33.33 12.48 L 28.98 12.48 L 28.98 10.23 L 36.03 10.23 L 36.03 21.36 L 33.51 21.36 L 33.51 19.26 A 10.765 10.765 0 0 1 32.197 20.248 A 14.206 14.206 0 0 1 30.96 20.955 Q 29.46 21.72 27.63 21.72 A 7.971 7.971 0 0 1 24.836 21.24 A 7.353 7.353 0 0 1 23.31 20.46 A 8.066 8.066 0 0 1 20.931 17.971 A 10.185 10.185 0 0 1 20.34 16.875 Q 19.26 14.55 19.26 11.4 A 16.89 16.89 0 0 1 19.51 8.425 A 12.772 12.772 0 0 1 20.4 5.475 A 9.819 9.819 0 0 1 22.135 2.791 A 8.837 8.837 0 0 1 23.685 1.455 A 8.35 8.35 0 0 1 27.096 0.135 A 11.119 11.119 0 0 1 28.86 0 A 13.578 13.578 0 0 1 30.651 0.113 A 10.083 10.083 0 0 1 32.34 0.48 Q 33.87 0.96 35.22 1.71 Z M 0 21.3 L 0 0.42 Q 1.41 0.27 2.76 0.195 A 45.393 45.393 0 0 1 4.016 0.144 Q 4.871 0.12 5.85 0.12 Q 8.55 0.12 10.515 0.96 Q 12.48 1.8 13.755 3.27 Q 15.03 4.74 15.645 6.675 A 13.277 13.277 0 0 1 16.237 9.974 A 15.452 15.452 0 0 1 16.26 10.83 A 13.593 13.593 0 0 1 15.816 14.339 A 12.54 12.54 0 0 1 15.63 14.97 Q 15 16.92 13.695 18.405 A 8.691 8.691 0 0 1 11.218 20.34 A 10.577 10.577 0 0 1 10.365 20.745 A 10.307 10.307 0 0 1 8.141 21.386 Q 6.93 21.6 5.52 21.6 A 56.093 56.093 0 0 1 4.299 21.587 Q 3.694 21.574 3.157 21.547 A 30.449 30.449 0 0 1 2.535 21.51 Q 1.26 21.42 0 21.3 Z M 2.85 2.73 L 2.85 18.96 A 13.07 13.07 0 0 0 3.829 19.061 A 14.784 14.784 0 0 0 4.17 19.08 Q 4.86 19.11 5.61 19.11 A 11.372 11.372 0 0 0 7.459 18.969 Q 8.464 18.803 9.286 18.443 A 6.009 6.009 0 0 0 10.02 18.06 Q 11.73 17.01 12.54 15.135 A 9.687 9.687 0 0 0 13.216 12.713 A 12.751 12.751 0 0 0 13.35 10.83 A 10.172 10.172 0 0 0 12.54 6.78 Q 11.73 4.89 10.05 3.735 Q 8.37 2.58 5.76 2.58 A 29.47 29.47 0 0 0 4.927 2.591 A 22.259 22.259 0 0 0 4.17 2.625 A 40.841 40.841 0 0 0 3.48 2.674 A 31.224 31.224 0 0 0 2.85 2.73 Z" vector-effect="non-scaling-stroke"/>
    </g>
</svg>